<svg xmlns="http://www.w3.org/2000/svg" width="12.874" height="15.94" viewBox="0 0 12.874 15.94"><defs><style>.a{fill:#fff;}</style></defs><g transform="translate(0 0)"><path class="a" d="M7.816,15.94a.962.962,0,0,1-.919-1V12.951h-.92v1.992a.962.962,0,0,1-.919,1,.962.962,0,0,1-.92-1V12.951H3.679A1.442,1.442,0,0,1,2.3,11.457V5.977h8.277v5.48A1.442,1.442,0,0,1,9.2,12.951H8.737v1.992A.962.962,0,0,1,7.816,15.94Zm4.139-4.982a.961.961,0,0,1-.92-1V5.977a.923.923,0,1,1,1.839,0V9.962A.961.961,0,0,1,11.955,10.958Zm-11.036,0a.961.961,0,0,1-.919-1V5.977a.961.961,0,0,1,.919-1,.961.961,0,0,1,.92,1V9.962A.961.961,0,0,1,.919,10.958Zm9.63-5.977H2.324A4.489,4.489,0,0,1,4.733,1.394L4.151.182A.131.131,0,0,1,4.2.014.109.109,0,0,1,4.254,0a.115.115,0,0,1,.1.067L4.946,1.3a3.852,3.852,0,0,1,2.982,0L8.519.067A.116.116,0,0,1,8.622,0a.112.112,0,0,1,.052.014.128.128,0,0,1,.049.168L8.141,1.394A4.49,4.49,0,0,1,10.549,4.98ZM8.277,2.765a.7.7,0,0,0-.667.722.669.669,0,1,0,1.334,0A.7.7,0,0,0,8.277,2.765Zm-3.679,0a.7.7,0,0,0-.666.722.7.7,0,0,0,.666.722.7.7,0,0,0,.667-.722A.7.7,0,0,0,4.6,2.765Z" transform="translate(0 0)"/></g></svg>