<svg xmlns="http://www.w3.org/2000/svg" width="13.626" height="15.94" viewBox="0 0 13.626 15.94"><defs><style>.a{fill:#fff;}</style></defs><g transform="translate(0 0)"><path class="a" d="M4.346,15.94c-1.034,0-1.813-.955-2.585-2.019A9.774,9.774,0,0,1,.138,10.079,6.035,6.035,0,0,1,.7,5.891a4.145,4.145,0,0,1,3.461-2h.044a4.849,4.849,0,0,1,1.682.41,3.3,3.3,0,0,0,1.035.283,3.363,3.363,0,0,0,1-.28,5.626,5.626,0,0,1,1.936-.463c.09,0,.18,0,.267.013a3.949,3.949,0,0,1,3.06,1.58l-.012.007a3.546,3.546,0,0,0-1.794,3.027,3.558,3.558,0,0,0,2.239,3.222l.006,0-.006.017a8.6,8.6,0,0,1-1.153,2.249c-.652.908-1.392,1.937-2.561,1.958H9.855a2.991,2.991,0,0,1-1.244-.3,3.476,3.476,0,0,0-1.468-.335,3.69,3.69,0,0,0-1.538.346,3.3,3.3,0,0,1-1.2.308ZM6.961,3.68c-.057,0-.114,0-.169-.006A3.232,3.232,0,0,1,7.68,1.207,3.8,3.8,0,0,1,10.144,0a3.412,3.412,0,0,1-.871,2.545A3.22,3.22,0,0,1,6.961,3.68Z" transform="translate(0)"/></g></svg>