<svg xmlns="http://www.w3.org/2000/svg" xmlns:xlink="http://www.w3.org/1999/xlink" width="168" height="168" viewBox="0 0 168 168"><defs><style>.a{fill:#fff;}.b{fill:#0046f5;}.c{filter:url(#a);}</style><filter id="a" x="0" y="0" width="168" height="168" filterUnits="userSpaceOnUse"><feOffset dy="6" input="SourceAlpha"/><feGaussianBlur stdDeviation="8" result="b"/><feFlood flood-color="#24263f" flood-opacity="0.451"/><feComposite operator="in" in2="b"/><feComposite in="SourceGraphic"/></filter></defs><g transform="translate(23 17)"><g class="c" transform="matrix(1, 0, 0, 1, -23, -17)"><path class="a" d="M61,1A60,60,0,1,1,1,61,60,60,0,0,1,61,1Z" transform="translate(23 17)"/></g><path class="b" d="M26.756,18.6,5.708,30.663A2.418,2.418,0,0,1,4.47,31a2.813,2.813,0,0,1-1.238-.3,2.3,2.3,0,0,1-1.238-2.112V4.455A2.3,2.3,0,0,1,3.232,2.344a2.369,2.369,0,0,1,2.476.038L26.756,14.448a2.219,2.219,0,0,1,1.238,2.074A2.219,2.219,0,0,1,26.756,18.6Z" transform="translate(50 44)"/><path class="b" d="M26.756,18.6,5.708,30.663A2.418,2.418,0,0,1,4.47,31a2.813,2.813,0,0,1-1.238-.3,2.3,2.3,0,0,1-1.238-2.112V4.455A2.3,2.3,0,0,1,3.232,2.344a2.369,2.369,0,0,1,2.476.038L26.756,14.448a2.219,2.219,0,0,1,1.238,2.074A2.219,2.219,0,0,1,26.756,18.6Z" transform="translate(50 44)"/></g></svg>