<?xml version="1.0" encoding="UTF-8" standalone="no"?>
<svg
   xmlns:dc="http://purl.org/dc/elements/1.1/"
   xmlns:cc="http://creativecommons.org/ns#"
   xmlns:rdf="http://www.w3.org/1999/02/22-rdf-syntax-ns#"
   xmlns:svg="http://www.w3.org/2000/svg"
   xmlns="http://www.w3.org/2000/svg"
   xmlns:sodipodi="http://sodipodi.sourceforge.net/DTD/sodipodi-0.dtd"
   xmlns:inkscape="http://www.inkscape.org/namespaces/inkscape"
   width="198"
   height="198"
   viewBox="0 0 198 198"
   version="1.1"
   id="svg4562"
   sodipodi:docname="Ellipse_merged.svg"
   inkscape:version="0.92.4 (5da689c313, 2019-01-14)">
  <metadata
     id="metadata4566">
    <rdf:RDF>
      <cc:Work
         rdf:about="">
        <dc:format>image/svg+xml</dc:format>
        <dc:type
           rdf:resource="http://purl.org/dc/dcmitype/StillImage" />
        <dc:title></dc:title>
      </cc:Work>
    </rdf:RDF>
  </metadata>
  <sodipodi:namedview
     pagecolor="#ffffff"
     bordercolor="#666666"
     borderopacity="1"
     objecttolerance="10"
     gridtolerance="10"
     guidetolerance="10"
     inkscape:pageopacity="0"
     inkscape:pageshadow="2"
     inkscape:window-width="1920"
     inkscape:window-height="1017"
     id="namedview4564"
     showgrid="false"
     inkscape:zoom="2.1414141"
     inkscape:cx="5.4653794"
     inkscape:cy="122.6517"
     inkscape:window-x="-8"
     inkscape:window-y="-8"
     inkscape:window-maximized="1"
     inkscape:current-layer="svg4562" />
  <defs
     id="defs4556">
    <style
       id="style4543">.a{fill:#fff;}.b{filter:url(#a);}</style>
    <filter
       id="a"
       x="0"
       y="0"
       width="198"
       height="198"
       filterUnits="userSpaceOnUse">
      <feOffset
         dy="6"
         input="SourceAlpha"
         id="feOffset4545" />
      <feGaussianBlur
         stdDeviation="8"
         result="b"
         id="feGaussianBlur4547" />
      <feFlood
         flood-color="#24263f"
         flood-opacity="0.129"
         id="feFlood4549" />
      <feComposite
         operator="in"
         in2="b"
         id="feComposite4551"
         result="result1" />
      <feComposite
         in="SourceGraphic"
         in2="result1"
         id="feComposite4553" />
    </filter>
  </defs>
  <g
     class="b"
     transform="matrix(1, 0, 0, 1, 0, 0)"
     id="g4560">
    <path
       class="a"
       d="M76,1A75,75,0,1,1,1,76,75,75,0,0,1,76,1Z"
       transform="translate(23 17)"
       id="path4558" />
  </g>
  <path
     class="a"
     d="m 60.233491,91.528304 a 39,39 0 1 1 39,38.999996 39.045,39.045 0 0 1 -39,-38.999996 z m 3,0 a 36,36 0 1 0 36,-36.000002 36.041,36.041 0 0 0 -36,36.000002 z m 30.563,13.170996 -15,-11.999996 a 1.5001271,1.5001271 0 0 1 1.874,-2.343 l 13.888,11.110996 23.052999,-25.938996 a 1.5029584,1.5029584 0 0 1 2.244,2 L 95.855491,104.5283 a 1.5,1.5 0 0 1 -2.059,0.175 z"
     id="path4584"
     inkscape:connector-curvature="0"
     style="fill:#0060ff" />
</svg>
