<svg xmlns="http://www.w3.org/2000/svg" xmlns:xlink="http://www.w3.org/1999/xlink" width="657.585" height="730.355" viewBox="0 0 657.585 730.355"><defs><style>.a{fill:#081b44;}.b{fill:#081b43;opacity:0.17;}.b,.c{stroke:#123075;}.c{opacity:0.2;fill:url(#a);}</style><linearGradient id="a" y1="0.5" x2="1" y2="0.5" gradientUnits="objectBoundingBox"><stop offset="0" stop-color="#0c97fe"/><stop offset="1" stop-color="#0ce8f9"/></linearGradient></defs><g transform="translate(0 0.5)"><path class="a" d="M249.568,769.733a33.223,33.223,0,0,0,46.708.261l.263-.261a67.094,67.094,0,0,1,94.623,95.147L153.9,1102.145a67.094,67.094,0,1,1-94.886-94.885L212.872,853.4a19.683,19.683,0,0,0,2.411-2.411,33.259,33.259,0,0,0-46.971-46.971,19.462,19.462,0,0,0-2.411,2.411l-22.07,22.07a67.094,67.094,0,0,1-94.886-94.886l142.38-142.381a67.094,67.094,0,1,1,94.886,94.886l-36.644,36.644A33.207,33.207,0,0,0,249.568,769.733Z" transform="translate(-29.288 -400.16)"/><path class="b" d="M393.747,630.7a33.222,33.222,0,0,0,46.708.263l.262-.263a67.095,67.095,0,0,1,94.623,95.148L298.076,963.117a67.094,67.094,0,1,1-94.886-94.885l153.86-153.86a19.647,19.647,0,0,0,2.411-2.411,33.259,33.259,0,0,0-46.971-46.971,19.621,19.621,0,0,0-2.411,2.411l-50.653,50.173a67.094,67.094,0,0,1-94.884-94.886L335.505,452.2a67.094,67.094,0,1,1,94.885,94.886l-36.643,36.644A33.2,33.2,0,0,0,393.747,630.7Z" transform="translate(-2.381 -432.52)"/><path class="c" d="M478.467,775.966a33.223,33.223,0,0,0,46.709.263l.261-.263a67.095,67.095,0,0,1,94.623,95.148L382.8,1108.379a67.095,67.095,0,1,1-94.886-94.886l153.86-153.86a19.67,19.67,0,0,0,2.411-2.411,33.26,33.26,0,0,0-46.971-46.971,19.65,19.65,0,0,0-2.411,2.411l-50.653,50.173a67.094,67.094,0,0,1-94.886-94.886L420.225,597.467a67.094,67.094,0,1,1,94.886,94.886L478.467,729A33.207,33.207,0,0,0,478.467,775.966Z" transform="translate(17.339 -398.709)"/></g></svg>