<svg xmlns="http://www.w3.org/2000/svg" xmlns:xlink="http://www.w3.org/1999/xlink" width="310" height="348" viewBox="0 0 310 348"><defs><style>.a,.b{fill:#fff;}.a{font-size:20px;font-family:Poppins-Regular, Poppins;}.c{fill:#0060ff;}.d{filter:url(#a);}</style><filter id="a" x="56" y="0" width="198" height="198" filterUnits="userSpaceOnUse"><feOffset dy="6" input="SourceAlpha"/><feGaussianBlur stdDeviation="8" result="b"/><feFlood flood-color="#24263f" flood-opacity="0.129"/><feComposite operator="in" in2="b"/><feComposite in="SourceGraphic"/></filter></defs><g transform="translate(15 17)"><text class="a" transform="translate(-15 179)"><tspan x="65.24" y="21">Prosty, zrozumiały,</tspan><tspan x="13.35" y="50">nieskomplikowany i jednolity</tspan><tspan x="38.05" y="79">system dla wszystkich -</tspan><tspan x="59.42" y="108">zbieranie pieczątek</tspan></text><g class="d" transform="matrix(1, 0, 0, 1, -15, -17)"><path class="b" d="M76,1A75,75,0,1,1,1,76,75,75,0,0,1,76,1Z" transform="translate(79 17)"/></g><path class="c" d="M2,40A39,39,0,1,1,41,79,39.045,39.045,0,0,1,2,40Zm3,0A36,36,0,1,0,41,4,36.041,36.041,0,0,0,5,40ZM35.563,53.171l-15-12a1.5,1.5,0,0,1,1.874-2.343L36.325,49.939,59.378,24A1.5,1.5,0,0,1,61.622,26l-24,27a1.5,1.5,0,0,1-2.059.175Z" transform="translate(99 36)"/></g></svg>