<svg xmlns="http://www.w3.org/2000/svg" xmlns:xlink="http://www.w3.org/1999/xlink" width="1577.01" height="1727.082" viewBox="0 0 1577.01 1727.082"><defs><style>.a{fill:none;}.b{clip-path:url(#a);}.c{fill:#081b44;}.d{fill:#081b43;opacity:0.17;}.e{opacity:0.2;fill:url(#b);}</style><clipPath id="a"><rect class="a" width="1577.01" height="1727.082"/></clipPath><linearGradient id="b" y1="0.5" x2="1" y2="0.5" gradientUnits="objectBoundingBox"><stop offset="0" stop-color="#0c97fe"/><stop offset="1" stop-color="#0ce8f9"/></linearGradient></defs><g class="b"><g transform="translate(513.025 123.492)"><path class="c" d="M650.218,565.846a66.9,66.9,0,0,0,94.047.526l.529-.526c52.882-52.249,138.062-52.145,190.63.422,52.776,52.775,52.669,138.38-.107,191.156l-477.73,477.731c-52.776,52.776-138.38,52.882-191.158.107s-52.669-138.383.107-191.158l309.8-309.8a39.578,39.578,0,0,0,4.855-4.855,66.968,66.968,0,0,0-94.575-94.575,39.566,39.566,0,0,0-4.855,4.855L437.319,684.17A135.094,135.094,0,0,1,246.267,493.118L532.949,206.437c52.776-52.776,138.38-52.882,191.156-.107s52.671,138.38-.107,191.158l-73.78,73.782A66.859,66.859,0,0,0,650.218,565.846Z" transform="translate(-206.686 178.288)"/><path class="d" d="M823.364,426.816a66.893,66.893,0,0,0,94.046.529l.529-.529c52.882-52.247,138.062-52.143,190.63.424,52.775,52.776,52.669,138.38-.107,191.156l-477.73,477.73c-52.776,52.776-138.38,52.882-191.156.107s-52.671-138.383.1-191.158l309.8-309.8a40.062,40.062,0,0,0,4.855-4.855,66.968,66.968,0,0,0-94.575-94.575A39.116,39.116,0,0,0,654.9,500.7L552.914,601.728A135.094,135.094,0,1,1,361.862,410.677L706.095,67.41c52.776-52.778,138.38-52.882,191.158-.107s52.669,138.38-.107,191.158l-73.782,73.78A66.861,66.861,0,0,0,823.364,426.816Z" transform="translate(-35.356 -27.774)"/><path class="e" d="M908.086,572.078a66.893,66.893,0,0,0,94.046.529l.529-.529c52.882-52.247,138.062-52.143,190.629.422,52.775,52.778,52.669,138.383-.107,191.158l-477.731,477.73c-52.776,52.776-138.38,52.882-191.156.107s-52.671-138.383.1-191.158l309.8-309.8a25.81,25.81,0,0,0,2.532-2.321,26.113,26.113,0,0,0,2.323-2.532,66.968,66.968,0,0,0-94.575-94.575,39.137,39.137,0,0,0-4.855,4.855L637.636,746.99A135.094,135.094,0,0,1,446.584,555.939L790.817,212.672c52.776-52.778,138.38-52.882,191.156-.107s52.671,138.38-.1,191.158L908.086,477.5A66.86,66.86,0,0,0,908.086,572.078Z" transform="translate(90.213 187.527)"/></g></g></svg>