<svg xmlns="http://www.w3.org/2000/svg" xmlns:xlink="http://www.w3.org/1999/xlink" width="244.124" height="244.124" viewBox="0 0 244.124 244.124"><defs><style>.a{opacity:0.36;}.b{fill:none;stroke:#95989a;stroke-width:4px;}.c{fill:#001432;}.d{fill:url(#a);}</style><linearGradient id="a" x1="-0.145" y1="0.71" x2="0.898" y2="0.294" gradientUnits="objectBoundingBox"><stop offset="0" stop-color="#0c97fe"/><stop offset="0.182" stop-color="#0d9efe"/><stop offset="0.453" stop-color="#11b2fe"/><stop offset="0.778" stop-color="#18d3fd"/><stop offset="1" stop-color="#1deefd"/></linearGradient></defs><g transform="translate(2 2)"><g class="a"><circle class="b" cx="120.062" cy="120.062" r="120.062"/></g><g transform="translate(6.826 6.826)"><circle class="c" cx="113.236" cy="113.236" r="113.236" transform="translate(0 0)"/><path class="d" d="M71.8,61.346a8.619,8.619,0,0,0,12.483,0h0c6.687-6.687,17.832-6.687,24.965,0a18.042,18.042,0,0,1,0,24.965L46.831,148.725a18.042,18.042,0,0,1-24.965,0,18.042,18.042,0,0,1,0-24.965L62.434,83.191l.446-.446.446-.446a8.474,8.474,0,0,0-.446-12.037,8.9,8.9,0,0,0-12.037-.446l-.446.446-.446.446-5.8,5.8c-6.687,6.687-17.832,6.687-24.965,0-6.687-6.687-6.687-17.832,0-24.965L56.638,14.09a18.042,18.042,0,0,1,24.965,0,18.042,18.042,0,0,1,0,24.965L71.8,48.864C68.675,52.43,68.675,58.226,71.8,61.346Z" transform="translate(49.019 31.382)"/></g></g></svg>