<svg xmlns="http://www.w3.org/2000/svg" xmlns:xlink="http://www.w3.org/1999/xlink" width="273.978" height="98.789" viewBox="0 0 273.978 98.789"><defs><style>.a{fill:url(#a);}.b{fill:#fff;}.c{fill:#1deefd;}</style><linearGradient id="a" x1="-0.14" y1="0.707" x2="0.897" y2="0.29" gradientUnits="objectBoundingBox"><stop offset="0" stop-color="#0c97fe"/><stop offset="0.182" stop-color="#0d9efe"/><stop offset="0.453" stop-color="#11b2fe"/><stop offset="0.778" stop-color="#18d3fd"/><stop offset="1" stop-color="#1deefd"/></linearGradient></defs><path class="a" d="M27.5,24.6a4.079,4.079,0,0,0,5.907,0h0A8.354,8.354,0,0,1,45.218,36.415L15.682,65.952a8.538,8.538,0,0,1-11.815,0,8.538,8.538,0,0,1,0-11.815l19.2-19.2.211-.211.211-.211a4.01,4.01,0,0,0-.211-5.7,4.492,4.492,0,0,0-5.907,0l-.211.211-.211.211-2.743,2.743a8.537,8.537,0,0,1-11.815,0c-3.376-3.165-3.165-8.439,0-11.815L20.112,2.448a8.538,8.538,0,0,1,11.815,0,8.538,8.538,0,0,1,0,11.815l-4.43,4.43A4.079,4.079,0,0,0,27.5,24.6Z" transform="translate(0.063 -0.075)"/><path class="b" d="M36.977,29.327a9.058,9.058,0,0,1,3.8,6.118H34.023a4.555,4.555,0,0,0-1.9-2.954,6.034,6.034,0,0,0-3.587-1.055,3.58,3.58,0,0,0-2.743.844,2.6,2.6,0,0,0-1.055,2.11,1.919,1.919,0,0,0,.844,1.688,6.6,6.6,0,0,0,2.11,1.055,25.855,25.855,0,0,0,3.376.844c2.11.422,3.8.844,5.274,1.266a7.5,7.5,0,0,1,3.376,2.321,5.439,5.439,0,0,1,1.477,4.22,6.322,6.322,0,0,1-2.743,5.274,13.5,13.5,0,0,1-7.6,1.9c-3.587,0-6.54-.633-8.65-2.11A9.288,9.288,0,0,1,18.2,44.517h6.751a4.1,4.1,0,0,0,1.9,2.954,7.5,7.5,0,0,0,4.009,1.055,3.58,3.58,0,0,0,2.743-.844,2.93,2.93,0,0,0,1.055-2.11,1.919,1.919,0,0,0-.844-1.688,6.6,6.6,0,0,0-2.11-1.055,22.8,22.8,0,0,0-3.587-.844,43.788,43.788,0,0,1-5.063-1.266,8.259,8.259,0,0,1-3.376-2.11A6.192,6.192,0,0,1,18.2,34.6a6.068,6.068,0,0,1,2.743-5.274,13.493,13.493,0,0,1,7.6-2.11C32.335,27.006,35.078,27.85,36.977,29.327Z" transform="translate(20.33 30.01)"/><path class="b" d="M49.5,50.361v5.485H45.7c-3.165,0-5.485-.633-7.173-2.11C36.841,52.471,36,50.15,36,46.985V36.015H32.2V30.529H36V24.2h7.173v6.329H49.5v5.485H43.171V46.985c0,1.266.211,2.11.844,2.532a4.787,4.787,0,0,0,2.743.633H49.5Z" transform="translate(35.867 26.698)"/><path class="b" d="M62.266,28.577a8.2,8.2,0,0,1,3.587,4.009V27.311h6.962V52.628H65.852V47.354a8.2,8.2,0,0,1-3.587,4.009,11.448,11.448,0,0,1-6.118,1.477,12.742,12.742,0,0,1-6.329-1.477,11.189,11.189,0,0,1-4.43-4.43A14.157,14.157,0,0,1,43.7,39.969a14.767,14.767,0,0,1,1.688-6.962,11.189,11.189,0,0,1,4.43-4.43A12.742,12.742,0,0,1,56.148,27.1,10.974,10.974,0,0,1,62.266,28.577ZM51.717,34.7a7.493,7.493,0,0,0-2.11,5.274,6.414,6.414,0,0,0,2.11,5.274,7.354,7.354,0,0,0,5.274,1.9,7.354,7.354,0,0,0,5.274-1.9,6.7,6.7,0,0,0,2.11-5.274,6.414,6.414,0,0,0-2.11-5.274,7.713,7.713,0,0,0-5.274-1.9A6.558,6.558,0,0,0,51.717,34.7Z" transform="translate(48.629 29.916)"/><path class="b" d="M104.85,29.954a11,11,0,0,1,2.954,8.017V68.14h-6.962V38.6a6.044,6.044,0,0,0-1.688-4.43,5.943,5.943,0,0,0-4.43-1.477,5.4,5.4,0,0,0-4.009,1.688c-1.266,1.055-1.688,2.743-1.688,4.852V52.528H81.221V38.6a6.044,6.044,0,0,0-1.688-4.43A5.943,5.943,0,0,0,75.1,32.7a6.568,6.568,0,0,0-4.641,1.688c-1.266,1.055-1.688,2.743-1.688,4.852V52.528H61.6V27.211h7.173v4.852a7.847,7.847,0,0,1,3.587-3.8A11.68,11.68,0,0,1,77.845,27a10.7,10.7,0,0,1,5.907,1.477,9.236,9.236,0,0,1,3.8,4.22,9.618,9.618,0,0,1,4.009-4.22A10.7,10.7,0,0,1,97.466,27,11.562,11.562,0,0,1,104.85,29.954Z" transform="translate(68.493 29.805)"/><path class="b" d="M110.507,28.577a11.189,11.189,0,0,1,4.43,4.43,14.157,14.157,0,0,1,1.688,6.962,14.767,14.767,0,0,1-1.688,6.962,11.189,11.189,0,0,1-4.43,4.43,12.742,12.742,0,0,1-6.329,1.477,11.448,11.448,0,0,1-6.118-1.477,8.2,8.2,0,0,1-3.587-4.009V68.24H87.3V27.311h7.173v5.274a8.2,8.2,0,0,1,3.587-4.009,10.974,10.974,0,0,1,6.118-1.477A11.729,11.729,0,0,1,110.507,28.577ZM98.271,34.7a6.7,6.7,0,0,0-2.11,5.274,6.7,6.7,0,0,0,2.11,5.274,7.713,7.713,0,0,0,5.274,1.9,7.02,7.02,0,0,0,5.274-1.9,7.493,7.493,0,0,0,2.11-5.274,6.414,6.414,0,0,0-2.11-5.274,7.354,7.354,0,0,0-5.274-1.9A6.558,6.558,0,0,0,98.271,34.7Z" transform="translate(97.014 29.916)"/><path class="b" d="M131.8,41.013H111.34a6.641,6.641,0,0,0,2.11,5.063,6.951,6.951,0,0,0,4.641,1.688A7.5,7.5,0,0,0,122.1,46.71a5.135,5.135,0,0,0,2.11-2.954h7.6a9.691,9.691,0,0,1-2.321,4.641,12.58,12.58,0,0,1-4.641,3.376,15.415,15.415,0,0,1-6.329,1.266,15.593,15.593,0,0,1-7.173-1.477,11.029,11.029,0,0,1-4.852-4.43,12.2,12.2,0,0,1-1.688-6.962,14.767,14.767,0,0,1,1.688-6.962,12.294,12.294,0,0,1,4.852-4.43,16.19,16.19,0,0,1,7.173-1.477,15.026,15.026,0,0,1,7.173,1.477A13.549,13.549,0,0,1,130.539,33a12.1,12.1,0,0,1,1.688,6.118A13.445,13.445,0,0,0,131.8,41.013Zm-8.65-7.6a7.819,7.819,0,0,0-9.7,0,5.731,5.731,0,0,0-2.11,4.641h13.5A5.156,5.156,0,0,0,123.155,33.418Z" transform="translate(116.435 30.138)"/><path class="b" d="M133.093,28.477a12.674,12.674,0,0,1,5.7-1.477v6.962h-2.11c-5.274,0-7.806,2.11-7.806,6.54V52.739H121.7V27.422h7.173v4.852A14.7,14.7,0,0,1,133.093,28.477Z" transform="translate(135.189 29.805)"/><g transform="translate(39.374 90.139)"><path class="c" d="M24.085,47.441a2.262,2.262,0,0,1,.422,1.266,1.643,1.643,0,0,1-.633,1.477,2.579,2.579,0,0,1-1.9.633H19.233c-.211,0-.422,0-.422-.211-.211-.211-.211-.211-.211-.422V43.855c0-.211,0-.422.211-.422.211-.211.211-.211.422-.211h2.743a2.579,2.579,0,0,1,1.9.633,1.915,1.915,0,0,1,.633,1.477,1.611,1.611,0,0,1-.422,1.055,2.912,2.912,0,0,1-.844.633A1.6,1.6,0,0,1,24.085,47.441Zm-4.43-1.055h1.9c1.055,0,1.477-.422,1.477-1.055a1.1,1.1,0,0,0-.422-.844,1.581,1.581,0,0,0-1.055-.211H19.866v2.11Zm3.165,3.165a1.055,1.055,0,0,0,0-1.688,1.783,1.783,0,0,0-1.266-.422h-1.9v2.321h1.9C22.187,49.762,22.609,49.762,22.82,49.551Zm11.393.844c0,.211,0,.211-.211.422s-.211.211-.422.211h-.422l-.211-.211-.633-1.477h-3.8l-.633,1.266a.207.207,0,0,1-.211.211H27.25c-.211,0-.422,0-.422-.211-.211-.211-.211-.211-.211-.422v-.211l2.954-6.54c0-.211.211-.211.211-.422.211,0,.211-.211.422-.211s.211,0,.422.211c.211,0,.211.211.211.422l2.954,6.54C34.212,50.184,34.212,50.184,34.212,50.4Zm-5.274-2.532h2.954L30.415,44.7ZM43.284,50.4c0,.211,0,.211-.211.422s-.211.211-.422.211h-.422a.207.207,0,0,1-.211-.211l-1.477-2.532c-.211-.211-.211-.422-.422-.422s-.422-.211-.633-.211H38.432v2.532c0,.211,0,.422-.211.422-.211.211-.211.211-.422.211s-.422,0-.422-.211c-.211-.211-.211-.211-.211-.422V43.855c0-.211,0-.422.211-.422.211-.211.211-.211.422-.211h2.743a2.579,2.579,0,0,1,1.9.633,2.4,2.4,0,0,1,.633,1.688,3.049,3.049,0,0,1-.422,1.477,3.4,3.4,0,0,1-1.477.844c.211,0,.422.211.633.211.211.211.422.211.422.633l1.055,1.477C43.073,50.184,43.284,50.184,43.284,50.4Zm-2.11-4.009a1.055,1.055,0,0,0,0-1.688c-.211-.211-.633-.211-1.266-.211h-1.9V47.02h1.9C40.541,46.6,40.963,46.6,41.174,46.387Zm5.063,4.22c-.211-.211-.211-.211-.211-.422V43.855c0-.211,0-.422.211-.422.211-.211.211-.211.422-.211h2.11a4.174,4.174,0,0,1,2.954,1.055,4.011,4.011,0,0,1,1.055,2.743,4.574,4.574,0,0,1-1.055,2.954,3.427,3.427,0,0,1-2.954,1.055H46.66C46.449,50.817,46.238,50.817,46.238,50.606Zm2.532-.844a2.452,2.452,0,0,0,2.743-2.743c0-1.9-.844-2.743-2.743-2.743H47.5v5.485Zm12.237.422a.559.559,0,0,1-.633.633H55.732c-.211,0-.422,0-.422-.211s-.211-.211-.211-.422,0-.422.211-.422l4.009-5.485H55.943a.633.633,0,1,1,0-1.266h4.43c.211,0,.422,0,.422.211s.211.211.211.422,0,.422-.211.422l-4.009,5.485h3.587Q61.006,49.868,61.006,50.184Zm2.743.633c-.211-.211-.211-.211-.211-.422v-6.54c0-.211,0-.422.211-.422.211-.211.211-.211.422-.211s.422,0,.422.211c.211.211.211.211.211.422V50.4c0,.211,0,.422-.211.422-.211.211-.211.211-.422.211C64.171,50.817,63.96,50.817,63.749,50.817Zm4.641-.211c-.211-.211-.211-.211-.211-.422V43.855c0-.211,0-.422.211-.422.211-.211.211-.211.422-.211h4.009c.211,0,.422,0,.422.211.211,0,.211.211.211.422s0,.422-.211.422-.211.211-.422.211H69.656V46.6H72.61c.211,0,.422,0,.422.211.211,0,.211.211.211.422s0,.211-.211.422c-.211,0-.211.211-.422.211H69.656v2.321h3.165c.211,0,.422,0,.422.211.211,0,.211.211.211.422s0,.211-.211.422c-.211,0-.211.211-.422.211H68.812C68.6,50.817,68.6,50.817,68.39,50.606Zm6.962-.211c0-.211,0-.211.211-.422s.211-.211.422-.211h.422a2.125,2.125,0,0,0,.633-.211c.211-.211.211-.422.211-.844V43.855c0-.211,0-.422.211-.422.211-.211.211-.211.422-.211s.422,0,.422.211.211.211.211.422v4.852c0,1.477-.633,2.11-2.11,2.321h-.422A.559.559,0,0,1,75.352,50.4Zm10.971.211c-.211-.211-.211-.211-.211-.422V43.855c0-.211,0-.422.211-.422.211-.211.211-.211.422-.211s.422,0,.422.211c.211.211.211.211.211.422v5.907h3.165a.633.633,0,0,1,0,1.266H86.956C86.745,50.817,86.534,50.817,86.323,50.606Zm8.439-.211A2.836,2.836,0,0,1,93.5,48.918a5.485,5.485,0,0,1,0-4.22,2.836,2.836,0,0,1,1.266-1.477,3.135,3.135,0,0,1,1.9-.422,4.213,4.213,0,0,1,1.9.422A2.836,2.836,0,0,1,99.825,44.7a5.486,5.486,0,0,1,0,4.22A2.836,2.836,0,0,1,98.56,50.4a3.135,3.135,0,0,1-1.9.422A2.152,2.152,0,0,1,94.762,50.4Zm3.8-1.266a3.833,3.833,0,0,0,0-4.22,2.567,2.567,0,0,0-3.376,0,3.833,3.833,0,0,0,0,4.22,2.567,2.567,0,0,0,3.376,0Zm3.376,1.266c0-.211,0-.211.211-.422s.211-.211.422-.211h.422a2.125,2.125,0,0,0,.633-.211c.211-.211.211-.422.211-.844V43.855c0-.211,0-.422.211-.422.211-.211.211-.211.422-.211s.422,0,.422.211.211.211.211.422v4.852c0,1.477-.633,2.11-2.11,2.321h-.422A.674.674,0,0,1,101.935,50.4Zm13.5,0c0,.211,0,.211-.211.422s-.211.211-.422.211h-.422l-.211-.211-.633-1.477h-3.8l-.633,1.477a.207.207,0,0,1-.211.211h-.422c-.211,0-.422,0-.422-.211-.211-.211-.211-.211-.211-.422v-.211l2.954-6.54c0-.211.211-.211.211-.422.211,0,.211-.211.422-.211s.211,0,.422.211c.211,0,.211.211.211.422l2.954,6.54C115.438,50.184,115.438,50.184,115.438,50.4Zm-5.274-2.532h2.954L111.64,44.7Zm8.017,2.743c-.211-.211-.211-.211-.211-.422V43.855c0-.211,0-.422.211-.422.211-.211.211-.211.422-.211s.422,0,.422.211c.211.211.211.211.211.422v5.907H122.4a.633.633,0,0,1,0,1.266h-3.8C118.6,50.817,118.391,50.817,118.18,50.606Zm13.713-7.384c.211.211.211.211.211.422v6.54c0,.211,0,.422-.211.422-.211.211-.211.211-.422.211a.775.775,0,0,1-.633-.211l-4.009-5.274v4.852c0,.211,0,.422-.211.422-.211.211-.211.211-.422.211s-.422,0-.422-.211c-.211-.211-.211-.211-.211-.422v-6.54c0-.211,0-.422.211-.422.211-.211.211-.211.422-.211s.422,0,.422.211l4.009,5.274V43.855c0-.211,0-.422.211-.422s.211-.211.422-.211C131.683,43.011,131.894,43.222,131.894,43.222Zm3.587,7.6c-.211-.211-.211-.211-.211-.422v-6.54c0-.211,0-.422.211-.422.211-.211.211-.211.422-.211s.422,0,.422.211c.211.211.211.211.211.422V50.4c0,.211,0,.422-.211.422-.211.211-.211.211-.422.211C135.691,50.817,135.691,50.817,135.48,50.817Z" transform="translate(-18.6 -42.8)"/></g></svg>